<?xml version="1.0" encoding="utf-8"?>
<svg xmlns="http://www.w3.org/2000/svg" style="margin: auto; background: none; display: block; shape-rendering: auto;" width="258" height="90" preserveAspectRatio="xMidYMid">
<style type="text/css">
  text {
    text-anchor: middle; font-size: 80px; opacity: 0;
  }
</style>
<g style="transform-origin:129px 45px;transform:scale(1)">
<g transform="translate(129,45)">
  <g transform="translate(-7,4)"><g class="path" style="transform: matrix(1, 0, 0, 1, 0, 14.925); opacity: 0.05; transform-origin: -85.525px -6.0299px; animation: 1s linear 0s 1 normal forwards running float-btt-in-17f8bdf3-dfc0-4a7a-ae05-cf5f9fa84a1e;"><path d="M13.55-38.59L13.55 0L6.37 0L6.37-56.25L16.45-56.25L50.63-17.62L50.63-56.25L57.77-56.25L57.77 0L47.70 0L13.55-38.59" fill="#93dbe9" stroke="none" stroke-width="none" transform="translate(-117.59503173828125,22.095101623535157)" style="fill: rgb(147, 219, 233);"></path></g><g class="path" style="transform: matrix(1, 0, 0, 1, 0, 14.925); opacity: 0.05; transform-origin: -26.245px -6.0299px; animation: 1s linear 0.165s 1 normal forwards running float-btt-in-17f8bdf3-dfc0-4a7a-ae05-cf5f9fa84a1e;"><path d="M97.34-30.98L118.09 0L102.27 0L89.06-19.73L75.55 0L64.61 0L84.92-25.86L64.61-56.25L80.43-56.25L93.20-37.15L107.15-56.25L118.09-56.25L97.34-30.98" fill="#93dbe9" stroke="none" stroke-width="none" transform="translate(-117.59503173828125,22.095101623535157)" style="fill: rgb(104, 156, 197);"></path></g><g class="path" style="transform: matrix(1, 0, 0, 1, 0, 14.925); opacity: 0.05; transform-origin: 29.045px -6.1299px; animation: 1s linear 0.33s 1 normal forwards running float-btt-in-17f8bdf3-dfc0-4a7a-ae05-cf5f9fa84a1e;"><path d="M173.79-42.30L173.79-42.30L167.11-39.49L167.11-39.49Q166.33-42.03 165.02-44.14L165.02-44.14L165.02-44.14Q163.71-46.25 161.89-47.75L161.89-47.75L161.89-47.75Q160.08-49.26 157.77-50.10L157.77-50.10L157.77-50.10Q155.47-50.94 152.73-50.94L152.73-50.94L152.73-50.94Q149.80-50.94 147.36-49.98L147.36-49.98L147.36-49.98Q144.92-49.02 142.99-47.34L142.99-47.34L142.99-47.34Q141.05-45.66 139.61-43.44L139.61-43.44L139.61-43.44Q138.16-41.21 137.19-38.69L137.19-38.69L137.19-38.69Q136.21-36.17 135.74-33.48L135.74-33.48L135.74-33.48Q135.27-30.78 135.27-28.20L135.27-28.20L135.27-28.20Q135.27-24.10 136.23-20.04L136.23-20.04L136.23-20.04Q137.19-15.98 139.28-12.73L139.28-12.73L139.28-12.73Q141.37-9.49 144.69-7.48L144.69-7.48L144.69-7.48Q148.01-5.47 152.73-5.47L152.73-5.47L152.73-5.47Q155.23-5.47 157.46-6.31L157.46-6.31L157.46-6.31Q159.69-7.15 161.50-8.61L161.50-8.61L161.50-8.61Q163.32-10.08 164.69-12.07L164.69-12.07L164.69-12.07Q166.05-14.06 166.88-16.37L166.88-16.37L173.63-13.67L173.63-13.67Q172.15-9.96 169.57-7.17L169.57-7.17L169.57-7.17Q166.99-4.38 163.69-2.54L163.69-2.54L163.69-2.54Q160.39-0.70 156.62 0.21L156.62 0.21L156.62 0.21Q152.85 1.13 149.02 1.13L149.02 1.13L149.02 1.13Q144.88 1.13 141.07 0.12L141.07 0.12L141.07 0.12Q137.27-0.90 133.98-2.77L133.98-2.77L133.98-2.77Q130.70-4.65 128.03-7.30L128.03-7.30L128.03-7.30Q125.35-9.96 123.46-13.20L123.46-13.20L123.46-13.20Q121.56-16.45 120.53-20.25L120.53-20.25L120.53-20.25Q119.49-24.06 119.49-28.20L119.49-28.20L119.49-28.20Q119.49-32.34 120.53-36.15L120.53-36.15L120.53-36.15Q121.56-39.96 123.46-43.22L123.46-43.22L123.46-43.22Q125.35-46.48 128.03-49.14L128.03-49.14L128.03-49.14Q130.70-51.80 133.98-53.67L133.98-53.67L133.98-53.67Q137.27-55.55 141.07-56.56L141.07-56.56L141.07-56.56Q144.88-57.58 149.02-57.58L149.02-57.58L149.02-57.58Q153.01-57.58 156.82-56.64L156.82-56.64L156.82-56.64Q160.63-55.70 163.91-53.81L163.91-53.81L163.91-53.81Q167.19-51.91 169.75-49.04L169.75-49.04L169.75-49.04Q172.30-46.17 173.79-42.30" fill="#93dbe9" stroke="none" stroke-width="none" transform="translate(-117.59503173828125,22.095101623535157)" style="fill: rgb(94, 111, 163);"></path></g><g class="path" style="transform: matrix(1, 0, 0, 1, 0, 14.925); opacity: 0.05; transform-origin: 93.07px -6.1299px; animation: 1s linear 0.495s 1 normal forwards running float-btt-in-17f8bdf3-dfc0-4a7a-ae05-cf5f9fa84a1e;"><path d="M241.56-28.20L241.56-28.20L241.56-28.20Q241.56-21.41 239.22-15.96L239.22-15.96L239.22-15.96Q236.88-10.51 232.73-6.72L232.73-6.72L232.73-6.72Q228.59-2.93 222.93-0.90L222.93-0.90L222.93-0.90Q217.27 1.13 210.66 1.13L210.66 1.13L210.66 1.13Q204.06 1.13 198.40-0.90L198.40-0.90L198.40-0.90Q192.73-2.93 188.59-6.72L188.59-6.72L188.59-6.72Q184.45-10.51 182.11-15.96L182.11-15.96L182.11-15.96Q179.77-21.41 179.77-28.20L179.77-28.20L179.77-28.20Q179.77-35.12 182.09-40.57L182.09-40.57L182.09-40.57Q184.41-46.02 188.54-49.79L188.54-49.79L188.54-49.79Q192.66-53.55 198.32-55.57L198.32-55.57L198.32-55.57Q203.98-57.58 210.66-57.58L210.66-57.58L210.66-57.58Q217.34-57.58 223.01-55.57L223.01-55.57L223.01-55.57Q228.67-53.55 232.79-49.79L232.79-49.79L232.79-49.79Q236.91-46.02 239.24-40.57L239.24-40.57L239.24-40.57Q241.56-35.12 241.56-28.20zM225.78-28.20L225.78-28.20L225.78-28.20Q225.78-30.78 225.55-33.48L225.55-33.48L225.55-33.48Q225.31-36.17 224.69-38.71L224.69-38.71L224.69-38.71Q224.06-41.25 222.99-43.48L222.99-43.48L222.99-43.48Q221.91-45.70 220.23-47.36L220.23-47.36L220.23-47.36Q218.55-49.02 216.19-49.98L216.19-49.98L216.19-49.98Q213.83-50.94 210.66-50.94L210.66-50.94L210.66-50.94Q207.46-50.94 205.08-49.98L205.08-49.98L205.08-49.98Q202.70-49.02 201.02-47.38L201.02-47.38L201.02-47.38Q199.34-45.74 198.28-43.52L198.28-43.52L198.28-43.52Q197.23-41.29 196.62-38.77L196.62-38.77L196.62-38.77Q196.02-36.25 195.78-33.54L195.78-33.54L195.78-33.54Q195.55-30.82 195.55-28.20L195.55-28.20L195.55-28.20Q195.55-25.63 195.78-22.93L195.78-22.93L195.78-22.93Q196.02-20.23 196.64-17.71L196.64-17.71L196.64-17.71Q197.27-15.20 198.34-12.97L198.34-12.97L198.34-12.97Q199.41-10.74 201.09-9.08L201.09-9.08L201.09-9.08Q202.77-7.42 205.14-6.45L205.14-6.45L205.14-6.45Q207.50-5.47 210.66-5.47L210.66-5.47L210.66-5.47Q213.75-5.47 216.05-6.46L216.05-6.46L216.05-6.46Q218.36-7.46 220.04-9.16L220.04-9.16L220.04-9.16Q221.72-10.86 222.83-13.11L222.83-13.11L222.83-13.11Q223.95-15.35 224.59-17.87L224.59-17.87L224.59-17.87Q225.23-20.39 225.51-23.05L225.51-23.05L225.51-23.05Q225.78-25.70 225.78-28.20" fill="#93dbe9" stroke="none" stroke-width="none" transform="translate(-117.59503173828125,22.095101623535157)" style="fill: rgb(59, 67, 104);"></path></g></g>
</g>
</g>
<style id="float-btt-in-17f8bdf3-dfc0-4a7a-ae05-cf5f9fa84a1e" data-anikit="">@keyframes float-btt-in-17f8bdf3-dfc0-4a7a-ae05-cf5f9fa84a1e
{
  0% {
    animation-timing-function: cubic-bezier(0.2242,0.7499,0.3142,0.8148);
    transform: translate(0px,14.925px) rotate(0deg) scale(1,1) skewX(0deg) skewY(0deg);
    opacity: 0.05;
  }
  100% {
    transform: translate(0px,0px) rotate(0deg) scale(1,1) skewX(0deg) skewY(0deg);
    opacity: 1;
  }
}</style></svg>